<svg xmlns="http://www.w3.org/2000/svg" width="640" height="480" viewBox="0 0 640 480" role="img" aria-label="D§Xâ JDá ê ˆ@ t|0| Þ ">
  <defs>
    <linearGradient id="bg" x1="0" y1="0" x2="1" y2="1">
      <stop offset="0" stop-color="#fafaf9"/>
      <stop offset=".58" stop-color="#f5f4f0"/>
      <stop offset="1" stop-color="#e6f0ef"/>
    </linearGradient>
    <filter id="shadow" x="-20%" y="-20%" width="140%" height="140%">
      <feDropShadow dx="0" dy="16" stdDeviation="18" flood-color="#1c1917" flood-opacity=".12"/>
    </filter>
  </defs>
  <rect width="640" height="480" fill="url(#bg)"/>
  <circle cx="122" cy="95" r="92" fill="#fef3c7" opacity=".76"/>
  <path d="M0 362c100-42 166-12 256-45 80-30 130-74 222-43 56 19 101 35 162 16v190H0z" fill="#d6ebe8" opacity=".76"/>
  <g filter="url(#shadow)">
    <rect x="156" y="78" width="330" height="318" rx="28" fill="#fff"/>
    <path d="M204 130h230M204 168h180M204 206h230M204 244h142" stroke="#d6d3d1" stroke-width="11" stroke-linecap="round"/>
    <path d="M220 322c51-60 112-92 184-96" fill="none" stroke="#b45309" stroke-width="8" stroke-linecap="round"/>
    <path d="M376 212l48 28-74 92-43 12 16-42z" fill="#0f4c5c"/>
    <path d="M424 240l24 14-74 92-24-14z" fill="#fef3c7"/>
    <path d="M307 344l43-12-28-30z" fill="#b45309"/>
  </g>
  <path d="M112 408h416" stroke="#0f4c5c" stroke-width="9" stroke-linecap="round" opacity=".16"/>
</svg>
