<svg xmlns="http://www.w3.org/2000/svg" width="640" height="480" viewBox="0 0 640 480" role="img" aria-label="´ t„ü 8 „|| ôěü” ěü \D">
  <defs>
    <linearGradient id="bg" x1="0" y1="0" x2="1" y2="1">
      <stop offset="0" stop-color="#fafaf9"/>
      <stop offset=".52" stop-color="#f5f4f0"/>
      <stop offset="1" stop-color="#f1eadb"/>
    </linearGradient>
    <filter id="shadow" x="-20%" y="-20%" width="140%" height="140%">
      <feDropShadow dx="0" dy="16" stdDeviation="18" flood-color="#1c1917" flood-opacity=".14"/>
    </filter>
  </defs>
  <rect width="640" height="480" fill="url(#bg)"/>
  <circle cx="506" cy="92" r="96" fill="#fef3c7" opacity=".82"/>
  <path d="M0 340c94-30 158-8 238-38 84-32 132-72 222-45 70 21 110 48 180 28v195H0z" fill="#d6ebe8" opacity=".72"/>
  <g transform="translate(124 92)" filter="url(#shadow)">
    <rect width="392" height="286" rx="30" fill="#fff"/>
    <rect x="0" y="0" width="392" height="86" rx="30" fill="#0f4c5c"/>
    <circle cx="92" cy="120" r="52" fill="#fef3c7" stroke="#fff" stroke-width="10"/>
    <circle cx="92" cy="100" r="24" fill="#b45309" opacity=".28"/>
    <path d="M44 172c14-37 39-55 48-55s34 18 48 55" fill="#0f4c5c" opacity=".9"/>
    <path d="M178 128h142M178 162h112M178 214h160M178 248h100" stroke="#d6d3d1" stroke-width="11" stroke-linecap="round"/>
    <rect x="178" y="184" width="116" height="26" rx="13" fill="#fef3c7"/>
  </g>
  <g transform="translate(454 276)" filter="url(#shadow)">
    <circle cx="40" cy="40" r="40" fill="#b45309"/>
    <path d="M40 18l7 15 16 2-12 11 3 16-14-8-14 8 3-16-12-11 16-2z" fill="#fff7ed"/>
  </g>
</svg>
