<svg xmlns="http://www.w3.org/2000/svg" width="640" height="480" viewBox="0 0 640 480" role="img" aria-label="Community building Cebu tips together on Cebu Eottae">
  <defs>
    <linearGradient id="c06bg" x1="0" y1="0" x2="1" y2="1">
      <stop offset="0" stop-color="#fafaf9"/>
      <stop offset=".52" stop-color="#f5f4f0"/>
      <stop offset="1" stop-color="#e6f0ef"/>
    </linearGradient>
    <linearGradient id="c06logo" x1="0" y1="0" x2="1" y2="1">
      <stop offset="0" stop-color="#38bdf8"/>
      <stop offset="1" stop-color="#0f4c5c"/>
    </linearGradient>
    <filter id="c06sh" x="-20%" y="-20%" width="140%" height="140%">
      <feDropShadow dx="0" dy="16" stdDeviation="18" flood-color="#1c1917" flood-opacity=".13"/>
    </filter>
  </defs>
  <rect width="640" height="480" fill="url(#c06bg)"/>
  <circle cx="112" cy="96" r="92" fill="#fef3c7" opacity=".8"/>
  <path d="M0 356c70-24 128-12 202-33 92-27 140-88 242-61 86 23 126 60 196 32v186H0z" fill="#d6ebe8" opacity=".76"/>
  <!-- stacked info blocks -->
  <g transform="translate(248 268)" filter="url(#c06sh)">
    <rect x="0" y="48" width="144" height="36" rx="10" fill="#0f4c5c" opacity=".18"/>
    <rect x="12" y="24" width="144" height="36" rx="10" fill="#0f4c5c" opacity=".28"/>
    <rect x="24" y="0" width="144" height="36" rx="10" fill="#0f4c5c" opacity=".38"/>
    <path d="M48 18h96M48 8h64" stroke="#fef3c7" stroke-width="6" stroke-linecap="round" opacity=".7"/>
  </g>
  <!-- logo badge center top -->
  <g transform="translate(248 28)" filter="url(#c06sh)">
    <rect x="0" y="0" width="144" height="56" rx="28" fill="#fff" stroke="#e7e5e4" stroke-width="2"/>
    <circle cx="36" cy="28" r="22" fill="url(#c06logo)"/>
    <path d="M26 44c3-16 9-26 18-32 2 10 6 18 12 24-5-14-4-24 4-32 8 12 13 24 14 40H26z" fill="#0f4c5c" opacity=".35"/>
    <path d="M36 46V26c0-6 4-11 10-13" stroke="#0f4c5c" stroke-width="2.5" stroke-linecap="round"/>
    <text x="92" y="36" text-anchor="middle" font-family="Source Sans 3, sans-serif" font-size="20" font-weight="800" fill="#0f4c5c">세부어때</text>
  </g>
  <!-- three community members -->
  <g transform="translate(108 148)" filter="url(#c06sh)">
    <circle cx="44" cy="44" r="44" fill="#fef3c7"/>
    <circle cx="44" cy="36" r="20" fill="#f5d0a8"/>
    <path d="M28 36c0-11 7-19 16-19s16 8 16 19" fill="#b45309" opacity=".8"/>
    <path d="M12 88c8-26 20-36 32-36s24 10 32 36" fill="#b45309"/>
    <rect x="4" y="100" width="80" height="44" rx="12" fill="#fff"/>
    <path d="M16 118h56M16 132h36" stroke="#0f4c5c" stroke-width="5" stroke-linecap="round" opacity=".25"/>
  </g>
  <g transform="translate(268 168)" filter="url(#c06sh)">
    <circle cx="52" cy="52" r="52" fill="#d6ebe8"/>
    <circle cx="52" cy="42" r="24" fill="#f5d0a8"/>
    <path d="M34 42c0-13 8-22 18-22s18 9 18 22" fill="#0f4c5c"/>
    <path d="M14 104c10-30 26-42 38-42s28 12 38 42" fill="#0f4c5c"/>
    <rect x="0" y="118" width="104" height="52" rx="14" fill="#fff"/>
    <path d="M16 138h72M16 154h48" stroke="#0f4c5c" stroke-width="6" stroke-linecap="round" opacity=".22"/>
  </g>
  <g transform="translate(448 156)" filter="url(#c06sh)">
    <circle cx="44" cy="44" r="44" fill="#f1eadb"/>
    <circle cx="44" cy="36" r="20" fill="#f5d0a8"/>
    <path d="M28 36c0-11 7-19 16-19s16 8 16 19" fill="#44403c"/>
    <path d="M12 88c8-26 20-36 32-36s24 10 32 36" fill="#44403c"/>
    <rect x="4" y="100" width="80" height="44" rx="12" fill="#fff"/>
    <path d="M16 118h56M16 132h36" stroke="#b45309" stroke-width="5" stroke-linecap="round" opacity=".35"/>
  </g>
  <!-- join CTA ribbon -->
  <g transform="translate(148 388)" filter="url(#c06sh)">
    <rect x="0" y="0" width="344" height="56" rx="28" fill="#0f4c5c"/>
    <text x="172" y="36" text-anchor="middle" font-family="Noto Serif KR, serif" font-size="17" font-weight="700" fill="#fef3c7">Join as columnist</text>
    <path d="M48 28l12 10 22-26" fill="none" stroke="#fef3c7" stroke-width="6" stroke-linecap="round" stroke-linejoin="round" opacity=".6"/>
  </g>
  <!-- check badge -->
  <g transform="translate(520 320)" filter="url(#c06sh)">
    <rect width="72" height="72" rx="22" fill="#0f4c5c"/>
    <path d="M20 38l14 14 30-36" fill="none" stroke="#fef3c7" stroke-width="9" stroke-linecap="round" stroke-linejoin="round"/>
  </g>
</svg>
