<svg xmlns="http://www.w3.org/2000/svg" width="640" height="480" viewBox="0 0 640 480" role="img" aria-label="8€´L ìü¬¤¸\ ½ØD ˜” ¬Œ">
  <defs>
    <linearGradient id="bg" x1="0" y1="0" x2="1" y2="1">
      <stop offset="0" stop-color="#fafaf9"/>
      <stop offset=".5" stop-color="#f5f4f0"/>
      <stop offset="1" stop-color="#f1eadb"/>
    </linearGradient>
    <filter id="shadow" x="-20%" y="-20%" width="140%" height="140%">
      <feDropShadow dx="0" dy="16" stdDeviation="18" flood-color="#1c1917" flood-opacity=".14"/>
    </filter>
  </defs>
  <rect width="640" height="480" fill="url(#bg)"/>
  <circle cx="486" cy="104" r="104" fill="#fef3c7" opacity=".8"/>
  <path d="M0 350c74-26 136-20 204-42 82-26 126-79 220-60 84 17 138 65 216 38v194H0z" fill="#d6ebe8" opacity=".7"/>
  <g transform="translate(144 78)" filter="url(#shadow)">
    <rect x="0" y="0" width="352" height="320" rx="30" fill="#fff"/>
    <rect x="38" y="38" width="276" height="56" rx="18" fill="#0f4c5c"/>
    <rect x="64" y="58" width="148" height="14" rx="7" fill="#fef3c7"/>
    <circle cx="176" cy="188" r="58" fill="#f5f4f0"/>
    <circle cx="176" cy="160" r="30" fill="#b45309" opacity=".25"/>
    <path d="M116 276c15-42 48-66 60-66s45 24 60 66" fill="#0f4c5c" opacity=".88"/>
    <path d="M72 122h80M200 122h80M72 296h208" stroke="#d6d3d1" stroke-width="10" stroke-linecap="round"/>
  </g>
  <g transform="translate(438 256)" filter="url(#shadow)">
    <rect width="92" height="72" rx="19" fill="#b45309"/>
    <path d="M24 72l-8 24 29-24z" fill="#b45309"/>
    <path d="M27 35h38M27 50h25" stroke="#fff7ed" stroke-width="7" stroke-linecap="round"/>
  </g>
</svg>
