<svg xmlns="http://www.w3.org/2000/svg" width="640" height="480" viewBox="0 0 640 480" role="img" aria-label="Cebu community writers">
  <defs>
    <linearGradient id="bg" x1="0" y1="0" x2="1" y2="1">
      <stop offset="0" stop-color="#fafaf9"/>
      <stop offset=".52" stop-color="#f5f4f0"/>
      <stop offset="1" stop-color="#e6f0ef"/>
    </linearGradient>
    <filter id="shadow" x="-20%" y="-20%" width="140%" height="140%">
      <feDropShadow dx="0" dy="16" stdDeviation="18" flood-color="#1c1917" flood-opacity=".13"/>
    </filter>
  </defs>
  <rect width="640" height="480" fill="url(#bg)"/>
  <circle cx="112" cy="96" r="92" fill="#fef3c7" opacity=".8"/>
  <path d="M0 356c70-24 128-12 202-33 92-27 140-88 242-61 86 23 126 60 196 32v186H0z" fill="#d6ebe8" opacity=".76"/>
  <g transform="translate(134 78)" filter="url(#shadow)">
    <rect x="0" y="0" width="372" height="300" rx="34" fill="#fff"/>
    <path d="M54 76h264M54 116h186" stroke="#d6d3d1" stroke-width="12" stroke-linecap="round"/>
    <g transform="translate(56 166)">
      <circle cx="34" cy="34" r="34" fill="#fef3c7"/>
      <circle cx="34" cy="22" r="15" fill="#b45309" opacity=".28"/>
      <path d="M8 64c10-24 22-34 26-34s16 10 26 34" fill="#0f4c5c" opacity=".86"/>
    </g>
    <g transform="translate(152 148)">
      <circle cx="44" cy="44" r="44" fill="#d6ebe8"/>
      <circle cx="44" cy="30" r="18" fill="#0f4c5c" opacity=".24"/>
      <path d="M12 82c12-31 27-44 32-44s20 13 32 44" fill="#0f4c5c" opacity=".9"/>
    </g>
    <g transform="translate(266 166)">
      <circle cx="34" cy="34" r="34" fill="#f1eadb"/>
      <circle cx="34" cy="22" r="15" fill="#b45309" opacity=".25"/>
      <path d="M8 64c10-24 22-34 26-34s16 10 26 34" fill="#b45309" opacity=".82"/>
    </g>
    <path d="M90 258h192" stroke="#0f4c5c" stroke-width="12" stroke-linecap="round" opacity=".22"/>
  </g>
  <g transform="translate(458 252)" filter="url(#shadow)">
    <rect width="82" height="82" rx="24" fill="#0f4c5c"/>
    <path d="M24 43l12 13 25-31" fill="none" stroke="#fef3c7" stroke-width="9" stroke-linecap="round" stroke-linejoin="round"/>
  </g>
</svg>
