<svg xmlns="http://www.w3.org/2000/svg" width="640" height="480" viewBox="0 0 640 480" role="img" aria-label="8€ Ý\ ô| 0]Xà ö@ ">
  <defs>
    <linearGradient id="bg" x1="0" y1="0" x2="1" y2="1">
      <stop offset="0" stop-color="#fafaf9"/>
      <stop offset="0.58" stop-color="#f5f4f0"/>
      <stop offset="1" stop-color="#e6f0ef"/>
    </linearGradient>
    <linearGradient id="sea" x1="0" y1="0" x2="1" y2="1">
      <stop offset="0" stop-color="#d6ebe8"/>
      <stop offset="1" stop-color="#b8d8d3"/>
    </linearGradient>
    <filter id="shadow" x="-20%" y="-20%" width="140%" height="140%">
      <feDropShadow dx="0" dy="16" stdDeviation="18" flood-color="#1c1917" flood-opacity=".13"/>
    </filter>
  </defs>
  <rect width="640" height="480" fill="url(#bg)"/>
  <circle cx="520" cy="80" r="118" fill="#fef3c7" opacity=".72"/>
  <path d="M0 342c88-28 148-12 214-34 82-27 118-84 214-71 82 11 132 65 212 42v201H0z" fill="url(#sea)" opacity=".84"/>
  <path d="M0 386c78-20 134-11 208-28 70-16 118-47 194-38 92 11 143 48 238 29v131H0z" fill="#fffaf0" opacity=".8"/>
  <g filter="url(#shadow)">
    <rect x="118" y="90" width="262" height="312" rx="22" fill="#fff"/>
    <rect x="146" y="126" width="206" height="22" rx="11" fill="#0f4c5c" opacity=".14"/>
    <rect x="146" y="170" width="172" height="12" rx="6" fill="#d6d3d1"/>
    <rect x="146" y="198" width="184" height="12" rx="6" fill="#d6d3d1"/>
    <rect x="146" y="226" width="132" height="12" rx="6" fill="#d6d3d1"/>
    <path d="M188 310c20-39 56-68 92-77 28-7 50-2 65 16-50 18-91 47-124 88z" fill="#fef3c7"/>
    <path d="M188 310c22-32 57-53 101-62" fill="none" stroke="#b45309" stroke-width="6" stroke-linecap="round"/>
  </g>
  <g transform="translate(392 184)" filter="url(#shadow)">
    <rect x="0" y="0" width="126" height="88" rx="22" fill="#0f4c5c"/>
    <path d="M37 88l-9 30 37-30z" fill="#0f4c5c"/>
    <circle cx="38" cy="42" r="7" fill="#fef3c7"/>
    <circle cx="64" cy="42" r="7" fill="#fef3c7"/>
    <circle cx="90" cy="42" r="7" fill="#fef3c7"/>
  </g>
</svg>
