<svg xmlns="http://www.w3.org/2000/svg" width="640" height="480" viewBox="0 0 640 480" role="img" aria-label="Cebu local discovers a hidden gem and wants to share it">
  <defs>
    <linearGradient id="c01bg" x1="0" y1="0" x2="1" y2="1">
      <stop offset="0" stop-color="#fafaf9"/>
      <stop offset=".55" stop-color="#f5f4f0"/>
      <stop offset="1" stop-color="#e6f0ef"/>
    </linearGradient>
    <linearGradient id="c01sea" x1="0" y1="0" x2="1" y2="0">
      <stop offset="0" stop-color="#d6ebe8"/>
      <stop offset="1" stop-color="#b8d8d3"/>
    </linearGradient>
    <linearGradient id="c01sun" cx="50%" cy="50%" r="50%">
      <stop offset="0" stop-color="#fef3c7"/>
      <stop offset="1" stop-color="#fde68a"/>
    </linearGradient>
    <filter id="c01sh" x="-20%" y="-20%" width="140%" height="140%">
      <feDropShadow dx="0" dy="14" stdDeviation="16" flood-color="#1c1917" flood-opacity=".14"/>
    </filter>
  </defs>
  <rect width="640" height="480" fill="url(#c01bg)"/>
  <circle cx="88" cy="88" r="78" fill="url(#c01sun)" opacity=".85"/>
  <path d="M0 360c90-32 160-18 230-42 76-26 130-72 220-58 88 14 142 58 190 38v182H0z" fill="url(#c01sea)" opacity=".8"/>
  <path d="M48 392c52 18 108 22 168 8 48-11 96-8 144 12" stroke="#0f4c5c" stroke-width="6" stroke-linecap="round" opacity=".2" fill="none"/>
  <!-- palm -->
  <g transform="translate(468 118)">
    <path d="M0 118c8-52 28-88 52-118 6 34 18 62 34 86-10-44-8-78 8-108 22 36 34 74 36 140H0z" fill="#0f4c5c" opacity=".22"/>
    <path d="M52 140V72c0-18 10-34 26-42" stroke="#0f4c5c" stroke-width="8" stroke-linecap="round"/>
  </g>
  <!-- hidden gem shop -->
  <g transform="translate(92 248)" filter="url(#c01sh)">
    <rect x="0" y="0" width="148" height="118" rx="18" fill="#fff"/>
    <rect x="18" y="18" width="112" height="52" rx="12" fill="#fef3c7"/>
    <path d="M34 62h78M34 44h52" stroke="#b45309" stroke-width="8" stroke-linecap="round" opacity=".35"/>
    <circle cx="118" cy="22" r="16" fill="#b45309"/>
    <path d="M112 22l4 4 8-10" fill="none" stroke="#fff" stroke-width="3" stroke-linecap="round" stroke-linejoin="round"/>
    <rect x="18" y="82" width="88" height="10" rx="5" fill="#e7e5e4"/>
  </g>
  <!-- character -->
  <g transform="translate(268 108)" filter="url(#c01sh)">
    <ellipse cx="88" cy="248" rx="72" ry="18" fill="#0f4c5c" opacity=".08"/>
    <path d="M52 228c0-54 24-98 68-110 38-10 72 8 88 42" fill="#d6ebe8"/>
    <circle cx="88" cy="92" r="44" fill="#f5d0a8"/>
    <path d="M52 92c0-24 16-44 36-44s36 20 36 44" fill="#0f4c5c" opacity=".85"/>
    <circle cx="74" cy="88" r="5" fill="#1c1917"/>
    <circle cx="102" cy="88" r="5" fill="#1c1917"/>
    <path d="M78 108c8 8 20 8 28 0" fill="none" stroke="#b45309" stroke-width="4" stroke-linecap="round"/>
    <path d="M44 228c14-36 34-54 44-54s30 18 44 54" fill="#0f4c5c"/>
    <path d="M120 170l28-12 18 34-46-22z" fill="#fef3c7" stroke="#b45309" stroke-width="4" stroke-linejoin="round"/>
  </g>
  <!-- thought bubble -->
  <g transform="translate(378 56)" filter="url(#c01sh)">
    <ellipse cx="108" cy="58" rx="108" ry="58" fill="#fff"/>
    <circle cx="34" cy="122" r="12" fill="#fff"/>
    <circle cx="18" cy="148" r="7" fill="#fff"/>
    <path d="M72 38h72" stroke="#b45309" stroke-width="10" stroke-linecap="round"/>
    <path d="M88 58l14 16 24-28" fill="none" stroke="#0f4c5c" stroke-width="8" stroke-linecap="round" stroke-linejoin="round"/>
    <path d="M148 32l8 14 16-20" fill="none" stroke="#f59e0b" stroke-width="6" stroke-linecap="round"/>
    <text x="108" y="98" text-anchor="middle" font-family="Source Sans 3, sans-serif" font-size="15" font-weight="700" fill="#0f4c5c">Share this!</text>
  </g>
</svg>
