<svg xmlns="http://www.w3.org/2000/svg" width="820" height="620" viewBox="0 0 820 620" role="img" aria-label="Cebu editorial community illustration">
  <defs>
    <linearGradient id="bg" x1="0" y1="0" x2="1" y2="1">
      <stop offset="0" stop-color="#fafaf9"/>
      <stop offset=".55" stop-color="#f5f4f0"/>
      <stop offset="1" stop-color="#e6f0ef"/>
    </linearGradient>
    <filter id="shadow" x="-20%" y="-20%" width="140%" height="140%">
      <feDropShadow dx="0" dy="22" stdDeviation="26" flood-color="#1c1917" flood-opacity=".14"/>
    </filter>
  </defs>
  <rect width="820" height="620" fill="url(#bg)"/>
  <circle cx="654" cy="114" r="148" fill="#fef3c7" opacity=".78"/>
  <path d="M0 448c118-44 212-18 314-58 116-45 188-104 328-58 72 24 118 42 178 24v264H0z" fill="#d6ebe8" opacity=".78"/>
  <path d="M0 514c118-24 210-12 336-28 118-15 206-32 332-9 56 10 98 12 152 0v143H0z" fill="#fffaf0" opacity=".85"/>
  <g transform="translate(122 82)" filter="url(#shadow)">
    <rect width="454" height="382" rx="36" fill="#fff"/>
    <rect x="42" y="44" width="370" height="62" rx="20" fill="#0f4c5c"/>
    <path d="M76 75h170M76 136h254M76 178h202M76 220h254" stroke="#d6d3d1" stroke-width="14" stroke-linecap="round"/>
    <rect x="76" y="268" width="122" height="48" rx="24" fill="#fef3c7"/>
    <path d="M98 292h76" stroke="#b45309" stroke-width="10" stroke-linecap="round"/>
    <g transform="translate(268 246)">
      <circle cx="58" cy="58" r="58" fill="#f5f4f0"/>
      <circle cx="58" cy="36" r="24" fill="#b45309" opacity=".24"/>
      <path d="M18 106c15-39 34-55 40-55s25 16 40 55" fill="#0f4c5c" opacity=".9"/>
    </g>
  </g>
  <g transform="translate(530 252)" filter="url(#shadow)">
    <rect width="150" height="118" rx="28" fill="#0f4c5c"/>
    <path d="M45 118l-14 42 54-42z" fill="#0f4c5c"/>
    <path d="M42 48h68M42 74h44" stroke="#fef3c7" stroke-width="10" stroke-linecap="round"/>
  </g>
  <g transform="translate(602 394)" filter="url(#shadow)">
    <rect width="92" height="92" rx="28" fill="#b45309"/>
    <path d="M28 48l14 15 28-36" fill="none" stroke="#fff7ed" stroke-width="10" stroke-linecap="round" stroke-linejoin="round"/>
  </g>
</svg>
